<svg width="42" height="42" viewBox="0 0 42 42" fill="none" xmlns="http://www.w3.org/2000/svg">
<g filter="url(#filter0_d_1_915)">
<path d="M19.0091 39H22.9909C29.1947 39 32.2966 39 34.4118 37.1787C36.5269 35.3575 36.9655 32.3088 37.8429 26.2114L38.3447 22.7242L38.3447 22.7241C39.0277 17.9775 39.3692 15.6041 38.3963 13.5749C37.4235 11.5457 35.3529 10.3122 31.2116 7.84526L28.7188 6.36036C24.9581 4.12012 23.0778 3 21 3C18.9222 3 17.0419 4.12012 13.2811 6.36037L10.7884 7.84526L10.7884 7.84526C6.64714 10.3122 4.57649 11.5457 3.60366 13.5749C2.63083 15.6041 2.97233 17.9775 3.65533 22.7242L4.15711 26.2114C5.03446 32.3088 5.47313 35.3575 7.58825 37.1787C9.70337 39 12.8053 39 19.0091 39Z" fill="#1A1528"/>
</g>
<g clip-path="url(#clip0_1_915)">
<circle cx="24.7029" cy="17.0504" r="0.617143" fill="#FFCE48"/>
</g>
<g clip-path="url(#clip1_1_915)">
<circle cx="26.184" cy="17.0504" r="0.617143" fill="#FFCE48"/>
</g>
<g clip-path="url(#clip2_1_915)">
<circle cx="27.665" cy="17.0504" r="0.617143" fill="#FFCE48"/>
</g>
<g clip-path="url(#clip3_1_915)">
<circle cx="26.184" cy="18.5315" r="0.617143" fill="#FFCE48"/>
</g>
<g clip-path="url(#clip4_1_915)">
<circle cx="27.665" cy="18.5315" r="0.617143" fill="#FFCE48"/>
</g>
<g clip-path="url(#clip5_1_915)">
<circle cx="17.2972" cy="14.0882" r="0.617143" fill="#FFCE48"/>
</g>
<g clip-path="url(#clip6_1_915)">
<circle cx="18.7782" cy="14.0882" r="0.617143" fill="#FFCE48"/>
</g>
<g clip-path="url(#clip7_1_915)">
<circle cx="20.2594" cy="14.0882" r="0.617143" fill="#FFCE48"/>
</g>
<g clip-path="url(#clip8_1_915)">
<circle cx="21.7406" cy="14.0882" r="0.617143" fill="#FFCE48"/>
</g>
<g clip-path="url(#clip9_1_915)">
<circle cx="23.2218" cy="14.0882" r="0.617143" fill="#FFCE48"/>
</g>
<g clip-path="url(#clip10_1_915)">
<circle cx="24.7029" cy="14.0882" r="0.617143" fill="#FFCE48"/>
</g>
<g clip-path="url(#clip11_1_915)">
<circle cx="17.2972" cy="15.5692" r="0.617143" fill="#FFCE48"/>
</g>
<g clip-path="url(#clip12_1_915)">
<circle cx="18.7782" cy="15.5691" r="0.617143" fill="#FFCE48"/>
</g>
<g clip-path="url(#clip13_1_915)">
<circle cx="20.2594" cy="15.5691" r="0.617143" fill="#FFCE48"/>
</g>
<g clip-path="url(#clip14_1_915)">
<circle cx="21.7406" cy="15.5691" r="0.617143" fill="#FFCE48"/>
</g>
<g clip-path="url(#clip15_1_915)">
<circle cx="23.2218" cy="15.5691" r="0.617143" fill="#FFCE48"/>
</g>
<g clip-path="url(#clip16_1_915)">
<circle cx="24.7029" cy="15.5691" r="0.617143" fill="#FFCE48"/>
</g>
<g clip-path="url(#clip17_1_915)">
<circle cx="26.1839" cy="15.5691" r="0.617143" fill="#FFCE48"/>
</g>
<g clip-path="url(#clip18_1_915)">
<circle cx="15.8161" cy="28.8994" r="0.617143" fill="#FFCE48"/>
</g>
<g clip-path="url(#clip19_1_915)">
<circle cx="17.2971" cy="28.8994" r="0.617143" fill="#FFCE48"/>
</g>
<g clip-path="url(#clip20_1_915)">
<circle cx="18.7783" cy="28.8994" r="0.617143" fill="#FFCE48"/>
</g>
<g clip-path="url(#clip21_1_915)">
<circle cx="20.2595" cy="28.8994" r="0.617143" fill="#FFCE48"/>
</g>
<g clip-path="url(#clip22_1_915)">
<circle cx="21.7407" cy="28.8994" r="0.617143" fill="#FFCE48"/>
</g>
<g clip-path="url(#clip23_1_915)">
<circle cx="23.2217" cy="28.8994" r="0.617143" fill="#FFCE48"/>
</g>
<g clip-path="url(#clip24_1_915)">
<circle cx="24.7029" cy="28.8994" r="0.617143" fill="#FFCE48"/>
</g>
<g clip-path="url(#clip25_1_915)">
<circle cx="17.2971" cy="30.3805" r="0.617143" fill="#FFCE48"/>
</g>
<g clip-path="url(#clip26_1_915)">
<circle cx="18.7783" cy="30.3805" r="0.617143" fill="#FFCE48"/>
</g>
<g clip-path="url(#clip27_1_915)">
<circle cx="20.2594" cy="30.3805" r="0.617143" fill="#FFCE48"/>
</g>
<g clip-path="url(#clip28_1_915)">
<circle cx="21.7407" cy="30.3805" r="0.617143" fill="#FFCE48"/>
</g>
<g clip-path="url(#clip29_1_915)">
<circle cx="23.2217" cy="30.3805" r="0.617143" fill="#FFCE48"/>
</g>
<g clip-path="url(#clip30_1_915)">
<circle cx="24.7029" cy="30.3805" r="0.617143" fill="#FFCE48"/>
</g>
<g clip-path="url(#clip31_1_915)">
<circle cx="14.3349" cy="25.9373" r="0.617143" fill="#FFCE48"/>
</g>
<g clip-path="url(#clip32_1_915)">
<circle cx="15.8161" cy="25.9372" r="0.617143" fill="#FFCE48"/>
</g>
<g clip-path="url(#clip33_1_915)">
<circle cx="14.3349" cy="27.4184" r="0.617143" fill="#FFCE48"/>
</g>
<g clip-path="url(#clip34_1_915)">
<circle cx="15.8161" cy="27.4185" r="0.617143" fill="#FFCE48"/>
</g>
<g clip-path="url(#clip35_1_915)">
<circle cx="17.2972" cy="21.4939" r="0.617143" fill="#FFCE48"/>
</g>
<g clip-path="url(#clip36_1_915)">
<circle cx="18.7782" cy="21.4939" r="0.617143" fill="#FFCE48"/>
</g>
<g clip-path="url(#clip37_1_915)">
<circle cx="20.2594" cy="21.4939" r="0.617143" fill="#FFCE48"/>
</g>
<g clip-path="url(#clip38_1_915)">
<circle cx="21.7406" cy="21.4939" r="0.617143" fill="#FFCE48"/>
</g>
<g clip-path="url(#clip39_1_915)">
<circle cx="23.2218" cy="21.4939" r="0.617143" fill="#FFCE48"/>
</g>
<g clip-path="url(#clip40_1_915)">
<circle cx="24.7029" cy="21.4939" r="0.617143" fill="#FFCE48"/>
</g>
<g clip-path="url(#clip41_1_915)">
<circle cx="17.2972" cy="22.975" r="0.617143" fill="#FFCE48"/>
</g>
<g clip-path="url(#clip42_1_915)">
<circle cx="18.7782" cy="22.9751" r="0.617143" fill="#FFCE48"/>
</g>
<g clip-path="url(#clip43_1_915)">
<circle cx="20.2594" cy="22.9751" r="0.617143" fill="#FFCE48"/>
</g>
<g clip-path="url(#clip44_1_915)">
<circle cx="21.7406" cy="22.9751" r="0.617143" fill="#FFCE48"/>
</g>
<g clip-path="url(#clip45_1_915)">
<circle cx="23.2218" cy="22.9751" r="0.617143" fill="#FFCE48"/>
</g>
<g clip-path="url(#clip46_1_915)">
<circle cx="24.7029" cy="22.9751" r="0.617143" fill="#FFCE48"/>
</g>
<g clip-path="url(#clip47_1_915)">
<circle cx="14.3349" cy="17.0503" r="0.617143" fill="#FFCE48"/>
</g>
<g clip-path="url(#clip48_1_915)">
<circle cx="14.3349" cy="18.5314" r="0.617143" fill="#FFCE48"/>
</g>
<g clip-path="url(#clip49_1_915)">
<circle cx="14.3349" cy="20.0125" r="0.617143" fill="#FFCE48"/>
</g>
<g clip-path="url(#clip50_1_915)">
<circle cx="15.8161" cy="15.5691" r="0.617143" fill="#FFCE48"/>
</g>
<g clip-path="url(#clip51_1_915)">
<circle cx="15.8161" cy="17.0503" r="0.617143" fill="#FFCE48"/>
</g>
<g clip-path="url(#clip52_1_915)">
<circle cx="15.8161" cy="18.5314" r="0.617143" fill="#FFCE48"/>
</g>
<g clip-path="url(#clip53_1_915)">
<circle cx="15.8161" cy="20.0125" r="0.617143" fill="#FFCE48"/>
</g>
<g clip-path="url(#clip54_1_915)">
<circle cx="15.8161" cy="21.4938" r="0.617143" fill="#FFCE48"/>
</g>
<g clip-path="url(#clip55_1_915)">
<circle cx="26.1839" cy="22.975" r="0.617143" fill="#FFCE48"/>
</g>
<g clip-path="url(#clip56_1_915)">
<circle cx="26.1839" cy="24.456" r="0.617143" fill="#FFCE48"/>
</g>
<g clip-path="url(#clip57_1_915)">
<circle cx="26.1839" cy="25.9373" r="0.617143" fill="#FFCE48"/>
</g>
<g clip-path="url(#clip58_1_915)">
<circle cx="26.1839" cy="27.4185" r="0.617143" fill="#FFCE48"/>
</g>
<g clip-path="url(#clip59_1_915)">
<circle cx="26.1839" cy="28.8995" r="0.617143" fill="#FFCE48"/>
</g>
<g clip-path="url(#clip60_1_915)">
<circle cx="27.6651" cy="24.456" r="0.617143" fill="#FFCE48"/>
</g>
<g clip-path="url(#clip61_1_915)">
<circle cx="27.665" cy="25.9372" r="0.617143" fill="#FFCE48"/>
</g>
<g clip-path="url(#clip62_1_915)">
<circle cx="27.665" cy="27.4183" r="0.617143" fill="#FFCE48"/>
</g>
<defs>
<filter id="filter0_d_1_915" x="0.923077" y="0.923077" width="40.1538" height="40.1538" filterUnits="userSpaceOnUse" color-interpolation-filters="sRGB">
<feFlood flood-opacity="0" result="BackgroundImageFix"/>
<feColorMatrix in="SourceAlpha" type="matrix" values="0 0 0 0 0 0 0 0 0 0 0 0 0 0 0 0 0 0 127 0" result="hardAlpha"/>
<feOffset/>
<feGaussianBlur stdDeviation="1.03846"/>
<feComposite in2="hardAlpha" operator="out"/>
<feColorMatrix type="matrix" values="0 0 0 0 0 0 0 0 0 0 0 0 0 0 0 0 0 0 0.3 0"/>
<feBlend mode="normal" in2="BackgroundImageFix" result="effect1_dropShadow_1_915"/>
<feBlend mode="normal" in="SourceGraphic" in2="effect1_dropShadow_1_915" result="shape"/>
</filter>
<clipPath id="clip0_1_915">
<rect width="1.48114" height="1.48114" fill="white" transform="translate(23.9623 16.3098)"/>
</clipPath>
<clipPath id="clip1_1_915">
<rect width="1.48114" height="1.48114" fill="white" transform="translate(25.4434 16.3098)"/>
</clipPath>
<clipPath id="clip2_1_915">
<rect width="1.48114" height="1.48114" fill="white" transform="translate(26.9245 16.3098)"/>
</clipPath>
<clipPath id="clip3_1_915">
<rect width="1.48114" height="1.48114" fill="white" transform="translate(25.4434 17.7909)"/>
</clipPath>
<clipPath id="clip4_1_915">
<rect width="1.48114" height="1.48114" fill="white" transform="translate(26.9245 17.7909)"/>
</clipPath>
<clipPath id="clip5_1_915">
<rect width="1.48114" height="1.48114" fill="white" transform="translate(16.5566 13.3475)"/>
</clipPath>
<clipPath id="clip6_1_915">
<rect width="1.48114" height="1.48114" fill="white" transform="translate(18.0377 13.3475)"/>
</clipPath>
<clipPath id="clip7_1_915">
<rect width="1.48114" height="1.48114" fill="white" transform="translate(19.5188 13.3475)"/>
</clipPath>
<clipPath id="clip8_1_915">
<rect width="1.48114" height="1.48114" fill="white" transform="translate(21 13.3475)"/>
</clipPath>
<clipPath id="clip9_1_915">
<rect width="1.48114" height="1.48114" fill="white" transform="translate(22.4811 13.3475)"/>
</clipPath>
<clipPath id="clip10_1_915">
<rect width="1.48114" height="1.48114" fill="white" transform="translate(23.9623 13.3475)"/>
</clipPath>
<clipPath id="clip11_1_915">
<rect width="1.48114" height="1.48114" fill="white" transform="translate(16.5566 14.8287)"/>
</clipPath>
<clipPath id="clip12_1_915">
<rect width="1.48114" height="1.48114" fill="white" transform="translate(18.0377 14.8286)"/>
</clipPath>
<clipPath id="clip13_1_915">
<rect width="1.48114" height="1.48114" fill="white" transform="translate(19.5188 14.8286)"/>
</clipPath>
<clipPath id="clip14_1_915">
<rect width="1.48114" height="1.48114" fill="white" transform="translate(21 14.8286)"/>
</clipPath>
<clipPath id="clip15_1_915">
<rect width="1.48114" height="1.48114" fill="white" transform="translate(22.4811 14.8286)"/>
</clipPath>
<clipPath id="clip16_1_915">
<rect width="1.48114" height="1.48114" fill="white" transform="translate(23.9623 14.8286)"/>
</clipPath>
<clipPath id="clip17_1_915">
<rect width="1.48114" height="1.48114" fill="white" transform="translate(25.4434 14.8286)"/>
</clipPath>
<clipPath id="clip18_1_915">
<rect width="1.48114" height="1.48114" fill="white" transform="translate(15.0754 28.1589)"/>
</clipPath>
<clipPath id="clip19_1_915">
<rect width="1.48114" height="1.48114" fill="white" transform="translate(16.5566 28.1589)"/>
</clipPath>
<clipPath id="clip20_1_915">
<rect width="1.48114" height="1.48114" fill="white" transform="translate(18.0377 28.1589)"/>
</clipPath>
<clipPath id="clip21_1_915">
<rect width="1.48114" height="1.48114" fill="white" transform="translate(19.5189 28.1589)"/>
</clipPath>
<clipPath id="clip22_1_915">
<rect width="1.48114" height="1.48114" fill="white" transform="translate(21 28.1589)"/>
</clipPath>
<clipPath id="clip23_1_915">
<rect width="1.48114" height="1.48114" fill="white" transform="translate(22.4811 28.1589)"/>
</clipPath>
<clipPath id="clip24_1_915">
<rect width="1.48114" height="1.48114" fill="white" transform="translate(23.9623 28.1589)"/>
</clipPath>
<clipPath id="clip25_1_915">
<rect width="1.48114" height="1.48114" fill="white" transform="translate(16.5566 29.64)"/>
</clipPath>
<clipPath id="clip26_1_915">
<rect width="1.48114" height="1.48114" fill="white" transform="translate(18.0377 29.64)"/>
</clipPath>
<clipPath id="clip27_1_915">
<rect width="1.48114" height="1.48114" fill="white" transform="translate(19.5188 29.64)"/>
</clipPath>
<clipPath id="clip28_1_915">
<rect width="1.48114" height="1.48114" fill="white" transform="translate(21 29.64)"/>
</clipPath>
<clipPath id="clip29_1_915">
<rect width="1.48114" height="1.48114" fill="white" transform="translate(22.4811 29.64)"/>
</clipPath>
<clipPath id="clip30_1_915">
<rect width="1.48114" height="1.48114" fill="white" transform="translate(23.9623 29.64)"/>
</clipPath>
<clipPath id="clip31_1_915">
<rect width="1.48114" height="1.48114" fill="white" transform="translate(13.5943 25.1967)"/>
</clipPath>
<clipPath id="clip32_1_915">
<rect width="1.48114" height="1.48114" fill="white" transform="translate(15.0754 25.1967)"/>
</clipPath>
<clipPath id="clip33_1_915">
<rect width="1.48114" height="1.48114" fill="white" transform="translate(13.5943 26.6778)"/>
</clipPath>
<clipPath id="clip34_1_915">
<rect width="1.48114" height="1.48114" fill="white" transform="translate(15.0754 26.6778)"/>
</clipPath>
<clipPath id="clip35_1_915">
<rect width="1.48114" height="1.48114" fill="white" transform="translate(16.5566 20.7532)"/>
</clipPath>
<clipPath id="clip36_1_915">
<rect width="1.48114" height="1.48114" fill="white" transform="translate(18.0377 20.7532)"/>
</clipPath>
<clipPath id="clip37_1_915">
<rect width="1.48114" height="1.48114" fill="white" transform="translate(19.5188 20.7532)"/>
</clipPath>
<clipPath id="clip38_1_915">
<rect width="1.48114" height="1.48114" fill="white" transform="translate(21 20.7532)"/>
</clipPath>
<clipPath id="clip39_1_915">
<rect width="1.48114" height="1.48114" fill="white" transform="translate(22.4811 20.7532)"/>
</clipPath>
<clipPath id="clip40_1_915">
<rect width="1.48114" height="1.48114" fill="white" transform="translate(23.9623 20.7532)"/>
</clipPath>
<clipPath id="clip41_1_915">
<rect width="1.48114" height="1.48114" fill="white" transform="translate(16.5566 22.2344)"/>
</clipPath>
<clipPath id="clip42_1_915">
<rect width="1.48114" height="1.48114" fill="white" transform="translate(18.0377 22.2344)"/>
</clipPath>
<clipPath id="clip43_1_915">
<rect width="1.48114" height="1.48114" fill="white" transform="translate(19.5188 22.2344)"/>
</clipPath>
<clipPath id="clip44_1_915">
<rect width="1.48114" height="1.48114" fill="white" transform="translate(21 22.2344)"/>
</clipPath>
<clipPath id="clip45_1_915">
<rect width="1.48114" height="1.48114" fill="white" transform="translate(22.4811 22.2344)"/>
</clipPath>
<clipPath id="clip46_1_915">
<rect width="1.48114" height="1.48114" fill="white" transform="translate(23.9623 22.2344)"/>
</clipPath>
<clipPath id="clip47_1_915">
<rect width="1.48114" height="1.48114" fill="white" transform="translate(13.5943 16.3097)"/>
</clipPath>
<clipPath id="clip48_1_915">
<rect width="1.48114" height="1.48114" fill="white" transform="translate(13.5943 17.7909)"/>
</clipPath>
<clipPath id="clip49_1_915">
<rect width="1.48114" height="1.48114" fill="white" transform="translate(13.5943 19.272)"/>
</clipPath>
<clipPath id="clip50_1_915">
<rect width="1.48114" height="1.48114" fill="white" transform="translate(15.0754 14.8286)"/>
</clipPath>
<clipPath id="clip51_1_915">
<rect width="1.48114" height="1.48114" fill="white" transform="translate(15.0754 16.3097)"/>
</clipPath>
<clipPath id="clip52_1_915">
<rect width="1.48114" height="1.48114" fill="white" transform="translate(15.0754 17.7908)"/>
</clipPath>
<clipPath id="clip53_1_915">
<rect width="1.48114" height="1.48114" fill="white" transform="translate(15.0754 19.2719)"/>
</clipPath>
<clipPath id="clip54_1_915">
<rect width="1.48114" height="1.48114" fill="white" transform="translate(15.0754 20.7532)"/>
</clipPath>
<clipPath id="clip55_1_915">
<rect width="1.48114" height="1.48114" fill="white" transform="translate(25.4434 22.2343)"/>
</clipPath>
<clipPath id="clip56_1_915">
<rect width="1.48114" height="1.48114" fill="white" transform="translate(25.4434 23.7155)"/>
</clipPath>
<clipPath id="clip57_1_915">
<rect width="1.48114" height="1.48114" fill="white" transform="translate(25.4434 25.1967)"/>
</clipPath>
<clipPath id="clip58_1_915">
<rect width="1.48114" height="1.48114" fill="white" transform="translate(25.4434 26.6779)"/>
</clipPath>
<clipPath id="clip59_1_915">
<rect width="1.48114" height="1.48114" fill="white" transform="translate(25.4434 28.159)"/>
</clipPath>
<clipPath id="clip60_1_915">
<rect width="1.48114" height="1.48114" fill="white" transform="translate(26.9245 23.7155)"/>
</clipPath>
<clipPath id="clip61_1_915">
<rect width="1.48114" height="1.48114" fill="white" transform="translate(26.9245 25.1966)"/>
</clipPath>
<clipPath id="clip62_1_915">
<rect width="1.48114" height="1.48114" fill="white" transform="translate(26.9245 26.6777)"/>
</clipPath>
</defs>
</svg>
