<svg width="20" height="20" viewBox="0 0 20 20" fill="none" xmlns="http://www.w3.org/2000/svg">
<path fill-rule="evenodd" clip-rule="evenodd" d="M5.31297 16.3101C4.91499 16.1679 4.58808 15.9688 4.30959 15.6903C3.49765 14.8784 3.36096 13.6549 3.33794 11.4583H16.662C16.6389 13.6549 16.5022 14.8784 15.6903 15.6903C15.4119 15.9688 15.085 16.1678 14.6872 16.3101L15.5591 18.0539C15.7135 18.3627 15.5883 18.7381 15.2796 18.8925C14.9709 19.0468 14.5954 18.9217 14.4411 18.613L13.4211 16.5731C12.5475 16.6666 11.4383 16.6666 9.99995 16.6666C8.56176 16.6666 7.45265 16.6666 6.57904 16.5731L5.5591 18.613C5.40473 18.9217 5.02931 19.0468 4.72058 18.8925C4.41184 18.7381 4.2867 18.3627 4.44107 18.0539L5.31297 16.3101ZM12.2916 13.3333C12.2916 12.9881 12.5714 12.7083 12.9166 12.7083H14.1666C14.5118 12.7083 14.7916 12.9881 14.7916 13.3333C14.7916 13.6785 14.5118 13.9583 14.1666 13.9583H12.9166C12.5714 13.9583 12.2916 13.6785 12.2916 13.3333ZM5.83328 12.7083C5.4881 12.7083 5.20828 12.9881 5.20828 13.3333C5.20828 13.6785 5.4881 13.9583 5.83328 13.9583H7.08328C7.42846 13.9583 7.70828 13.6785 7.70828 13.3333C7.70828 12.9881 7.42846 12.7083 7.08328 12.7083H5.83328Z" fill="#B3B3B3"/>
<path d="M16.6666 10.2083V8.33331C16.6666 5.19062 16.6666 3.61927 15.6903 2.64296C14.9579 1.91055 13.8906 1.72758 12.0763 1.68187C11.8512 1.6762 11.6666 1.85816 11.6666 2.08331C11.6666 3.00379 10.9204 3.74998 9.99995 3.74998C9.07947 3.74998 8.33328 3.00379 8.33328 2.08331C8.33328 1.85816 8.14865 1.6762 7.92357 1.68187C6.10927 1.72758 5.042 1.91055 4.30959 2.64296C3.33328 3.61927 3.33328 5.19062 3.33328 8.33331V10.2083H16.6666Z" fill="#B3B3B3"/>
</svg>
